HIERARCHY
ROOT Hips
{
	OFFSET 0.000000 0.000000 0.000000
	CHANNELS 6 Xposition Yposition Zposition Xrotation Yrotation Zrotation
	JOINT C_ctrl
	{
		OFFSET 0.000000 35.040482 -0.000011
		CHANNELS 3 Xrotation Yrotation Zrotation
		JOINT Bip01
		{
			OFFSET -41.537640 41.789009 -0.000007
			CHANNELS 3 Xrotation Yrotation Zrotation
			JOINT Bip01_Pelvis
			{
				OFFSET -2.462887 0.000000 0.000000
				CHANNELS 3 Xrotation Yrotation Zrotation
				JOINT BN_Tail_01
				{
					OFFSET -11.399368 7.351341 -0.000013
					CHANNELS 3 Xrotation Yrotation Zrotation
					JOINT BN_Tail_02
					{
						OFFSET -11.365196 -0.343025 0.000012
						CHANNELS 3 Xrotation Yrotation Zrotation
						JOINT BN_Tail_03
						{
							OFFSET -15.076256 -0.454979 0.000017
							CHANNELS 3 Xrotation Yrotation Zrotation
							JOINT BN_Tail_04
							{
								OFFSET -17.395691 -0.525002 0.000016
								CHANNELS 3 Xrotation Yrotation Zrotation
								JOINT BN_Tail_05
								{
									OFFSET -16.699837 -0.504005 0.000016
									CHANNELS 3 Xrotation Yrotation Zrotation
									End Site
									{
										OFFSET 0.503998 -16.699829 0.000067
									}
								}
							}
						}
					}
				}
				JOINT Bip01_Spine
				{
					OFFSET 8.297798 5.916809 -0.000020
					CHANNELS 3 Xrotation Yrotation Zrotation
					JOINT Bip01_R_Thigh
					{
						OFFSET -8.297779 -5.916794 10.541781
						CHANNELS 3 Xrotation Yrotation Zrotation
						JOINT Bip01_R_Calf
						{
							OFFSET 5.631542 -22.906792 0.862690
							CHANNELS 3 Xrotation Yrotation Zrotation
							JOINT Bip01_R_HorseLink
							{
								OFFSET -16.984341 -19.231926 -3.555767
								CHANNELS 3 Xrotation Yrotation Zrotation
								JOINT Bip01_R_Foot
								{
									OFFSET 4.290367 -24.783146 0.578056
									CHANNELS 3 Xrotation Yrotation Zrotation
									JOINT Bip01_R_Toe0
									{
										OFFSET 3.561211 -5.815116 0.760802
										CHANNELS 3 Xrotation Yrotation Zrotation
										JOINT Bip01_R_Toe0Nub
										{
											OFFSET 16.135469 0.002017 1.534789
											CHANNELS 3 Xrotation Yrotation Zrotation
											End Site
											{
												OFFSET -0.000002 16.208284 -0.000056
											}
										}
									}
								}
							}
						}
					}
					JOINT Bip01_L_Thigh
					{
						OFFSET -8.297813 -5.916832 -10.541739
						CHANNELS 3 Xrotation Yrotation Zrotation
						JOINT Bip01_L_Calf
						{
							OFFSET 5.631535 -22.906792 -0.862625
							CHANNELS 3 Xrotation Yrotation Zrotation
							JOINT Bip01_L_HorseLink
							{
								OFFSET -16.984318 -19.231949 3.555875
								CHANNELS 3 Xrotation Yrotation Zrotation
								JOINT Bip01_L_Foot
								{
									OFFSET 4.290367 -24.783169 -0.577965
									CHANNELS 3 Xrotation Yrotation Zrotation
									JOINT Bip01_L_Toe0
									{
										OFFSET 3.561245 -5.815111 -0.760799
										CHANNELS 3 Xrotation Yrotation Zrotation
										JOINT Bip01_L_Toe0Nub
										{
											OFFSET 6.574303 -0.000005 -1.538561
											CHANNELS 3 Xrotation Yrotation Zrotation
											End Site
											{
												OFFSET 0.000004 -6.751935 0.000023
											}
										}
									}
								}
							}
						}
					}
					JOINT Bip01_Spine1
					{
						OFFSET 20.556803 -4.626213 -0.000025
						CHANNELS 3 Xrotation Yrotation Zrotation
						JOINT Saddle
						{
							OFFSET 17.608810 18.174690 -0.000143
							CHANNELS 3 Xrotation Yrotation Zrotation
							End Site
							{
								OFFSET -0.000063 -0.000061 -22.448387
							}
						}
						JOINT BN_center
						{
							OFFSET 10.743275 -13.417107 -0.172041
							CHANNELS 3 Xrotation Yrotation Zrotation
							End Site
							{
								OFFSET 22.434088 0.553078 -0.579614
							}
						}
						JOINT Bip01_Spine2
						{
							OFFSET 24.765072 -2.054115 -0.000032
							CHANNELS 3 Xrotation Yrotation Zrotation
							JOINT Handle
							{
								OFFSET 63.735676 16.430748 -16.052464
								CHANNELS 3 Xrotation Yrotation Zrotation
								JOINT IK_Chain01
								{
									OFFSET -4.713058 -6.020439 0.185448
									CHANNELS 3 Xrotation Yrotation Zrotation
									End Site
									{
										OFFSET -0.000023 -0.000023 -7.648071
									}
								}
							}
							JOINT BN_hair04_01
							{
								OFFSET 1.987491 16.256981 -2.049672
								CHANNELS 3 Xrotation Yrotation Zrotation
								JOINT BN_hair04_02
								{
									OFFSET -1.318762 -3.831451 -6.174704
									CHANNELS 3 Xrotation Yrotation Zrotation
									JOINT BN_hair04_03
									{
										OFFSET -0.827490 -5.886627 -5.656666
										CHANNELS 3 Xrotation Yrotation Zrotation
										End Site
										{
											OFFSET -2.658262 5.010620 -5.929780
										}
									}
								}
							}
							JOINT Bip01_Neck
							{
								OFFSET 25.574577 9.433014 -0.000084
								CHANNELS 3 Xrotation Yrotation Zrotation
								JOINT Bip01_R_Clavicle
								{
									OFFSET -16.535652 0.011192 6.705692
									CHANNELS 3 Xrotation Yrotation Zrotation
									JOINT Bip01_R_UpperArm
									{
										OFFSET 20.272621 -12.959984 2.510816
										CHANNELS 3 Xrotation Yrotation Zrotation
										JOINT Bip01_R_Forearm
										{
											OFFSET -13.633509 -15.503704 -0.653585
											CHANNELS 3 Xrotation Yrotation Zrotation
											JOINT Bip01_R_Hand
											{
												OFFSET 2.580030 -27.804676 -1.136415
												CHANNELS 3 Xrotation Yrotation Zrotation
												JOINT Bip01_R_Finger0
												{
													OFFSET -0.281744 -19.659061 -0.398649
													CHANNELS 3 Xrotation Yrotation Zrotation
													JOINT Bip01_Xtra02
													{
														OFFSET 4.152210 -5.712314 0.433813
														CHANNELS 3 Xrotation Yrotation Zrotation
														JOINT Bip01_Xtra02Nub
														{
															OFFSET 15.457960 0.041654 0.507982
															CHANNELS 3 Xrotation Yrotation Zrotation
															End Site
															{
																OFFSET -15.421730 -0.157725 -1.163459
															}
														}
													}
													JOINT Bip01_R_Finger0Nub
													{
														OFFSET 8.362326 -9.718440 -0.143142
														CHANNELS 3 Xrotation Yrotation Zrotation
														End Site
														{
															OFFSET -1.213036 -0.198171 9.872291
														}
													}
												}
											}
										}
									}
								}
								JOINT Bip01_L_Clavicle
								{
									OFFSET -16.535673 0.011162 -6.705583
									CHANNELS 3 Xrotation Yrotation Zrotation
									JOINT Bip01_L_UpperArm
									{
										OFFSET 20.272615 -12.959999 -2.510836
										CHANNELS 3 Xrotation Yrotation Zrotation
										JOINT Bip01_L_Forearm
										{
											OFFSET -13.633495 -15.503681 0.653678
											CHANNELS 3 Xrotation Yrotation Zrotation
											JOINT Bip01_L_Hand
											{
												OFFSET 2.579988 -27.804686 1.136487
												CHANNELS 3 Xrotation Yrotation Zrotation
												JOINT Bip01_L_Finger0
												{
													OFFSET -0.281765 -19.659058 0.398696
													CHANNELS 3 Xrotation Yrotation Zrotation
													JOINT Bip01_Xtra01
													{
														OFFSET 4.083549 -5.738758 -0.666714
														CHANNELS 3 Xrotation Yrotation Zrotation
														JOINT Bip01_Xtra01Nub
														{
															OFFSET 6.758158 -0.395525 -0.023239
															CHANNELS 3 Xrotation Yrotation Zrotation
															End Site
															{
																OFFSET 6.764923 -0.254147 -0.029908
															}
														}
													}
													JOINT Bip01_L_Finger0Nub
													{
														OFFSET -0.012636 -9.629153 0.045740
														CHANNELS 3 Xrotation Yrotation Zrotation
														End Site
														{
															OFFSET 0.988407 0.004791 8.293357
														}
													}
												}
											}
										}
									}
								}
								JOINT BN_hair03_01
								{
									OFFSET -5.894140 16.270622 -2.498433
									CHANNELS 3 Xrotation Yrotation Zrotation
									JOINT BN_hair03_02
									{
										OFFSET -0.189278 -7.800507 -6.219162
										CHANNELS 3 Xrotation Yrotation Zrotation
										JOINT BN_hair03_03
										{
											OFFSET 0.612345 -10.844475 -3.370718
											CHANNELS 3 Xrotation Yrotation Zrotation
											End Site
											{
												OFFSET -2.273296 2.862007 -10.769416
											}
										}
									}
								}
								JOINT Bip01_Neck1
								{
									OFFSET 9.383755 11.908699 -0.000007
									CHANNELS 3 Xrotation Yrotation Zrotation
									JOINT BN_hair02_01
									{
										OFFSET 9.126320 18.808022 -1.420810
										CHANNELS 3 Xrotation Yrotation Zrotation
										JOINT BN_hair02_02
										{
											OFFSET 0.393478 -5.181091 -5.248574
											CHANNELS 3 Xrotation Yrotation Zrotation
											JOINT BN_hair02_03
											{
												OFFSET 0.762280 -8.167076 -0.230047
												CHANNELS 3 Xrotation Yrotation Zrotation
												End Site
												{
													OFFSET -0.025837 -1.251419 -8.109770
												}
											}
										}
									}
									JOINT Bip01_Head
									{
										OFFSET 14.266129 10.475403 -0.000008
										CHANNELS 3 Xrotation Yrotation Zrotation
										JOINT BN_Reins_01
										{
											OFFSET 18.547455 -15.740112 -0.000035
											CHANNELS 3 Xrotation Yrotation Zrotation
											JOINT BN_Reins_02
											{
												OFFSET -5.372810 -5.884506 0.000028
												CHANNELS 3 Xrotation Yrotation Zrotation
												JOINT BN_Reins_03
												{
													OFFSET -6.395866 -15.947449 0.000070
													CHANNELS 3 Xrotation Yrotation Zrotation
													JOINT BN_Halter_R_01
													{
														OFFSET -1.234055 -3.096100 7.096737
														CHANNELS 3 Xrotation Yrotation Zrotation
														End Site
														{
															OFFSET 10.514435 -4.176861 -0.000004
														}
													}
													JOINT BN_Halter_L_01
													{
														OFFSET -1.234062 -3.096146 -7.096726
														CHANNELS 3 Xrotation Yrotation Zrotation
														End Site
														{
															OFFSET -10.514435 4.176865 -0.000000
														}
													}
													JOINT BN_Reins_04
													{
														OFFSET -6.737644 -16.971684 0.000074
														CHANNELS 3 Xrotation Yrotation Zrotation
														JOINT BN_Halter_R_02
														{
															OFFSET -4.688869 -11.781956 7.096771
															CHANNELS 3 Xrotation Yrotation Zrotation
															End Site
															{
																OFFSET 14.669624 -5.827511 -0.000006
															}
														}
														JOINT BN_Halter_L_02
														{
															OFFSET -4.688892 -11.782017 -7.096693
															CHANNELS 3 Xrotation Yrotation Zrotation
															End Site
															{
																OFFSET -14.669624 5.827507 -0.000002
															}
														}
														JOINT BN_Reins_05
														{
															OFFSET -6.822578 -16.971161 0.000074
															CHANNELS 3 Xrotation Yrotation Zrotation
															JOINT BN_Reins_06
															{
																OFFSET -6.140354 -15.095148 0.000066
																CHANNELS 3 Xrotation Yrotation Zrotation
																End Site
																{
																	OFFSET -15.095150 6.140352 -0.000002
																}
															}
														}
													}
												}
											}
										}
										JOINT BN_hair01_01
										{
											OFFSET 8.957344 8.870956 0.112121
											CHANNELS 3 Xrotation Yrotation Zrotation
											JOINT BN_hair01_02
											{
												OFFSET 6.002075 -2.962952 -3.121264
												CHANNELS 3 Xrotation Yrotation Zrotation
												End Site
												{
													OFFSET 5.917702 3.813591 -2.232396
												}
											}
										}
										JOINT BN_Eyebrow_R
										{
											OFFSET 11.795959 -0.430496 4.449781
											CHANNELS 3 Xrotation Yrotation Zrotation
											JOINT Bip01_Xtra06Nub
											{
												OFFSET 2.936661 -0.262573 3.246701
												CHANNELS 3 Xrotation Yrotation Zrotation
												End Site
												{
													OFFSET 2.768745 0.208199 3.394807
												}
											}
										}
										JOINT BN_Eyebrow_L
										{
											OFFSET 11.586395 -0.445618 -4.441728
											CHANNELS 3 Xrotation Yrotation Zrotation
											JOINT Bip01_Xtra05Nub
											{
												OFFSET 3.244698 -0.349442 -4.416700
												CHANNELS 3 Xrotation Yrotation Zrotation
												End Site
												{
													OFFSET 3.053162 0.072495 -4.564033
												}
											}
										}
										JOINT Bip01_R_Ear_01
										{
											OFFSET 7.142960 7.567184 4.311657
											CHANNELS 3 Xrotation Yrotation Zrotation
											JOINT Bip01_Xtra04Nub
											{
												OFFSET 9.464531 9.264214 1.682953
												CHANNELS 3 Xrotation Yrotation Zrotation
												End Site
												{
													OFFSET 8.448181 10.159340 1.910823
												}
											}
										}
										JOINT Bip01__L_Ear_01
										{
											OFFSET 7.214943 7.717056 -4.356771
											CHANNELS 3 Xrotation Yrotation Zrotation
											JOINT Bip01_Xtra03Nub
											{
												OFFSET 9.230225 8.944366 -2.322746
												CHANNELS 3 Xrotation Yrotation Zrotation
												End Site
												{
													OFFSET 8.170288 9.841324 -2.643566
												}
											}
										}
										JOINT Bip01_Jaw
										{
											OFFSET 9.196068 -4.110695 -0.000013
											CHANNELS 3 Xrotation Yrotation Zrotation
											JOINT Bip01_Ponytail1Nub
											{
												OFFSET 10.976463 -21.082108 -0.000053
												CHANNELS 3 Xrotation Yrotation Zrotation
												End Site
												{
													OFFSET 11.247093 -20.938980 0.000113
												}
											}
										}
										JOINT Bip01_HeadNub
										{
											OFFSET 29.954575 -18.249489 -0.000063
											CHANNELS 3 Xrotation Yrotation Zrotation
											End Site
											{
												OFFSET -9.198448 -13.366348 0.000168
											}
										}
									}
								}
							}
						}
					}
				}
			}
		}
	}
}
MOTION
Frames: 5
Frame Time: 0.033333
0.000000 0.000000 0.000000 0.000008 0.000000 -0.000000 -0.000000 0.000000 -0.000000 0.000000 0.000000 -0.000006 0.003491 -0.000000 -0.000008 0.582105 -2.533364 22.722243 -1.423532 3.067918 23.653114 -0.420584 1.153913 21.214258 0.327668 -0.922997 11.724997 0.203947 -1.572312 6.770907 0.143672 0.000484 10.382443 -6.188815 5.668835 -7.201981 0.531244 0.016601 -2.692619 0.031701 0.001724 -0.160770 6.395004 -4.509059 0.248397 0.000729 -0.000018 -0.003715 0.000101 -0.000138 0.000004 1.167110 -4.088619 -25.335093 1.989661 0.287933 10.192566 -0.033931 -0.001821 -0.172195 -4.321976 3.693099 5.056075 -0.000871 0.000018 -0.003712 -0.012458 -0.009827 -0.036217 0.143184 -0.019006 -11.498069 0.917530 -0.020778 6.784392 1.532476 -0.153363 -0.014715 -0.052408 1.540617 -5.471444 0.000078 -0.000112 -0.000056 -0.000052 -0.014928 0.015042 -0.008350 0.000143 0.012208 -1.358238 0.409830 -0.217205 4.630808 -0.692452 0.247583 3.912570 0.384486 -20.925963 -3.451295 -1.873367 20.031724 -3.207962 -0.975643 4.844459 -0.000582 -0.130194 3.174626 7.444560 1.278314 -1.147230 -3.074510 -0.038696 0.688096 -1.002534 -0.004253 -0.069889 -0.802198 0.160631 -0.479901 -0.804179 0.123487 -0.482666 -3.552863 -1.707594 20.499771 2.899527 -2.371097 6.291642 -0.001239 -0.031386 -0.766036 -8.638696 -2.083549 3.589020 4.960862 0.006871 -0.600853 2.691733 2.076474 -0.752314 0.036604 0.063819 2.451840 -0.000913 0.100574 2.451955 -0.000063 0.000026 0.000168 -0.084364 0.071521 -0.302018 1.007133 -0.951696 3.765730 -0.126582 1.503369 -6.994504 -0.000053 -0.000001 0.000058 1.576002 0.281610 -4.546332 -1.614462 -1.251522 -7.205558 -3.002041 -4.940461 29.017362 -0.000029 0.000324 33.480057 -0.441787 -0.458728 -72.796129 -0.000060 -0.000072 -21.993998 0.000020 -0.000008 -0.026805 0.000002 -0.000016 0.012750 -0.000096 -0.000109 -34.639899 0.000036 0.000015 0.015168 0.000025 -0.000010 0.012721 -0.000048 -0.000055 -24.223455 0.000013 -0.000013 -0.000048 -0.000053 0.000038 0.000010 7.012414 1.751774 7.564555 -8.267950 -15.534608 1.380370 0.024205 -0.030051 11.786589 0.012327 -0.002717 0.003929 0.023222 -0.032301 11.715974 0.089451 -0.130631 0.175108 0.050297 0.015088 11.755976 -0.154133 0.027260 -0.044371 0.050134 0.014751 11.743116 0.646568 0.597925 -1.496397 -0.004520 -0.052603 11.750675 0.000071 -0.000033 11.750675 
0.000000 0.000000 0.000000 0.000008 0.000000 -0.000000 -0.000000 0.000000 -0.000000 -0.000024 -0.005019 -0.475920 0.984142 0.044760 0.160327 0.764462 -3.235180 23.800902 -1.725011 3.615501 23.070938 -0.721840 1.888810 20.919053 0.148369 -0.219951 11.764359 0.058603 -0.932930 6.835582 -0.857876 -0.241295 9.692671 -6.305042 5.760652 -5.273644 0.602846 0.016930 -3.055278 0.224224 0.010087 -1.136905 6.242774 -4.490382 0.697216 0.000729 -0.000020 -0.003715 0.000101 -0.000138 0.000004 1.814580 -4.006854 -22.152424 0.946760 0.091945 4.818914 0.909688 0.086812 4.629333 -5.180358 3.724412 1.017195 0.124496 0.000460 0.583118 -0.012458 -0.009828 -0.036218 0.263380 0.479433 -11.199974 0.917530 -0.020778 6.784390 1.531720 -0.154775 -0.294238 0.103553 1.086240 -3.989138 0.000078 -0.000112 -0.000055 -0.000052 -0.014928 0.015042 -0.000679 0.004554 0.010141 -1.353183 0.410642 -0.218798 4.705875 -0.680254 0.224885 3.649347 0.631693 -21.723750 -3.090009 -2.053276 20.821929 -3.284636 -0.804049 3.649467 0.000299 -0.160036 3.902522 7.240326 1.279034 -0.878361 -3.008193 -0.033278 0.130881 -0.964649 -0.066233 -0.046785 -0.802226 0.160632 -0.479903 -0.804179 0.123487 -0.482666 -3.193923 -1.885142 21.290106 2.500175 -2.231630 5.142497 -0.000292 -0.008182 -0.199873 -8.015727 -2.108905 3.905639 4.650415 0.009925 -1.327915 2.724835 2.075209 -0.763773 0.036632 0.063820 2.451840 -0.000913 0.100573 2.451956 0.005072 0.000872 -0.000888 -0.074942 0.072514 -0.303586 1.058562 -0.940978 3.756756 0.155089 1.184475 -7.275668 0.009284 0.000928 -0.000129 1.606209 0.283229 -4.546978 -1.549385 -1.252974 -7.204342 -3.095494 -5.422789 29.233517 -0.000030 0.000324 33.480064 -0.441787 -0.458728 -72.796129 -0.000060 -0.000072 -21.993996 0.000020 -0.000008 -0.026802 0.000002 -0.000016 0.012750 -0.000096 -0.000110 -34.639899 0.000036 0.000015 0.015161 0.000025 -0.000010 0.012718 -0.000048 -0.000055 -24.223462 0.000013 -0.000013 -0.000053 0.115464 -0.043279 0.260289 7.274736 1.717921 8.139362 -8.267951 -15.534604 1.380367 0.024223 -0.030043 11.786613 0.012325 -0.002712 0.003929 0.023237 -0.032294 11.715955 -1.282776 -0.025327 1.968585 0.050312 0.015113 11.755984 -1.248101 0.672660 1.829712 0.050143 0.014776 11.743115 0.646575 0.597945 -2.058899 -0.004503 -0.052624 11.750675 0.000071 -0.000033 11.750675 
0.000000 0.000000 0.000000 0.000008 0.000000 -0.000000 -0.000000 0.000000 -0.000000 -0.002618 -0.012327 -1.344540 2.880088 0.154270 0.477728 0.983155 -3.957322 25.870889 -2.114430 4.280883 22.493480 -1.190410 3.036141 19.965394 -0.086814 0.828098 11.402977 -0.084609 -0.306126 6.900602 -2.810650 -0.652859 8.381279 -6.489403 5.919066 -2.051306 0.683107 0.016757 -3.461896 0.564452 0.016842 -2.860750 5.994514 -4.493908 1.519194 0.000729 -0.000019 -0.003715 0.000101 -0.000139 0.000004 2.821097 -3.774148 -17.430872 -0.683910 -0.016765 -3.465884 2.565020 0.440317 13.203999 -6.853386 4.024719 -6.876888 0.126661 -0.019109 0.592798 -0.012458 -0.009828 -0.036217 0.458470 1.338020 -10.664016 0.917530 -0.020778 6.784390 1.530965 -0.156119 -0.568319 0.405094 0.368270 -1.327925 0.000078 -0.000112 -0.000056 -0.000052 -0.014927 0.015042 0.006840 0.008860 0.008163 -1.348218 0.411448 -0.220352 4.779491 -0.668306 0.202595 3.198746 1.066774 -22.822630 -2.466087 -2.342660 21.910849 -3.480882 -0.533181 1.459430 0.003155 -0.218980 5.341365 6.958386 1.266991 -0.629510 -2.908063 -0.031936 -0.681179 -0.927123 -0.126847 -0.024062 -0.802253 0.160632 -0.479905 -0.804179 0.123487 -0.482666 -2.572664 -2.175510 22.384478 1.941385 -2.075246 3.175797 0.000945 0.040393 0.984761 -7.367248 -2.097527 3.848384 4.316764 0.019918 -2.066116 2.757537 2.073891 -0.774995 0.036659 0.063820 2.451840 -0.000913 0.100573 2.451955 0.010125 0.001710 -0.001878 -0.065718 0.073485 -0.305122 1.108991 -0.930494 3.747989 0.605250 0.625069 -7.783625 0.018441 0.001877 -0.000286 1.635820 0.284820 -4.547618 -1.485577 -1.254394 -7.203137 -3.266552 -6.068550 29.531873 -0.000030 0.000325 33.480064 -0.441787 -0.458728 -72.796129 -0.000059 -0.000072 -21.993998 0.000020 -0.000008 -0.026802 0.000002 -0.000016 0.012750 -0.000096 -0.000109 -34.639899 0.000035 0.000015 0.015161 0.000025 -0.000010 0.012718 -0.000049 -0.000055 -24.223457 0.000013 -0.000013 -0.000051 0.419801 -0.151113 0.941987 7.532281 1.687280 8.703145 -8.267950 -15.534606 1.380369 0.024237 -0.030038 11.786636 0.012327 -0.002717 0.003931 0.023251 -0.032297 11.715933 -3.739093 0.085030 5.204410 0.050323 0.015135 11.755995 -3.248908 1.817510 5.227052 0.050158 0.014799 11.743114 0.647353 0.599800 -3.044408 -0.004485 -0.052644 11.750682 0.000072 -0.000033 11.750669 
0.000000 0.000000 0.000000 0.000008 0.000000 -0.000000 -0.000000 0.000000 -0.000000 -0.008010 -0.027028 -2.501485 5.056602 0.300266 0.925286 1.204894 -4.401610 28.275286 -2.342378 4.660524 22.417243 -1.643305 4.248145 18.742218 -0.343512 2.269445 10.437833 -0.229957 0.326715 6.967831 -5.079619 -1.167443 6.576153 -6.699699 6.118608 2.033229 0.697935 0.016663 -3.537016 1.066523 0.008112 -5.404632 5.674263 -4.518163 2.613498 0.000729 -0.000019 -0.003715 0.000101 -0.000137 0.000004 3.939023 -3.338874 -12.473885 -2.276818 0.105185 -11.564005 4.299365 1.107489 22.603654 -8.831652 4.735577 -16.159031 0.039477 -0.009812 0.185079 -0.012458 -0.009829 -0.036217 0.703644 2.481576 -9.943126 0.917530 -0.020778 6.784391 1.530195 -0.157452 -0.845110 0.853226 -0.558940 2.238838 0.000078 -0.000112 -0.000056 -0.000052 -0.014927 0.015042 0.014431 0.013240 0.006136 -1.326537 0.414957 -0.227162 4.853844 -0.656285 0.180083 2.602565 1.658365 -24.190903 -1.620864 -2.697117 23.278091 -3.767331 -0.167442 -1.404932 0.009608 -0.301019 7.347883 6.588278 1.242404 -0.482774 -2.782087 -0.026905 -1.723733 -0.889840 -0.188284 -0.001143 -0.802308 0.160631 -0.479909 -0.804179 0.123487 -0.482666 -1.728721 -2.533523 23.753769 1.242771 -1.864833 0.705790 0.000996 0.107963 2.632122 -6.720081 -2.044427 3.395660 3.961712 0.038144 -2.824261 2.790394 2.072623 -0.786353 0.036713 0.063820 2.451839 -0.000913 0.100573 2.451955 0.032887 0.004952 -0.006022 -0.056395 0.074470 -0.306668 1.159924 -0.919898 3.739078 1.188469 -0.126076 -8.483976 0.027683 0.002794 -0.000507 1.665749 0.286426 -4.548257 -1.421138 -1.255828 -7.201915 -3.541048 -6.821535 29.869322 -0.000030 0.000325 33.480064 -0.441787 -0.458728 -72.796136 -0.000059 -0.000072 -21.993998 0.000020 -0.000008 -0.026803 0.000002 -0.000016 0.012747 -0.000096 -0.000110 -34.639895 0.000036 0.000015 0.015161 0.000026 -0.000010 0.012721 -0.000048 -0.000056 -24.223452 0.000013 -0.000013 -0.000051 0.878132 -0.296768 1.957074 8.072934 1.618805 9.858584 -8.267949 -15.534610 1.380371 0.024271 -0.030030 11.786676 0.012327 -0.002714 0.003930 0.023280 -0.032286 11.715887 -7.045348 0.020785 9.517104 0.050349 0.015181 11.756003 -6.027393 3.166482 9.818826 0.050181 0.014847 11.743104 0.646806 0.598504 -4.368980 -0.004450 -0.052687 11.750675 0.000071 -0.000033 11.750676 
0.000000 0.000000 0.000000 0.000008 0.000000 -0.000000 -0.000000 0.000000 -0.000000 -0.011259 -0.039414 -3.827382 6.808519 0.452469 1.481234 1.384466 -4.506791 30.504564 -2.287713 4.544610 22.979398 -1.892811 5.060828 17.705845 -0.527099 3.832725 8.993619 -0.272922 1.553569 6.456209 -6.962946 -1.722201 4.442210 -6.869233 6.331468 6.430555 0.565133 0.016811 -2.864282 1.729786 -0.037721 -8.772580 5.297333 -4.547325 3.869738 0.000729 -0.000020 -0.003715 0.000101 -0.000138 0.000004 5.061940 -2.748934 -7.668060 -3.548962 0.369023 -18.143443 5.679305 1.895994 30.622887 -10.532614 5.699303 -24.089341 -0.013170 -0.009965 -0.061209 -0.012458 -0.009828 -0.036220 0.972576 3.820893 -9.108933 0.917530 -0.020778 6.784390 1.529352 -0.158820 -1.129010 1.447532 -1.620853 6.384623 0.000078 -0.000112 -0.000057 -0.000051 -0.014928 0.015042 0.048867 0.022871 -0.006615 -1.304355 0.418537 -0.234134 4.928942 -0.644181 0.157338 1.921119 2.359378 -25.767739 -0.628907 -3.077607 24.875295 -4.095194 0.291545 -4.559292 0.020896 -0.397357 9.713025 6.111305 1.214747 -0.505135 -2.632932 -0.027696 -2.963992 -0.851640 -0.250359 0.022220 -0.802414 0.160631 -0.479917 -0.804179 0.123487 -0.482666 -0.741453 -2.914736 25.346233 0.461577 -1.571282 -1.917730 -0.001360 0.185912 4.533438 -6.129569 -1.947490 2.551244 3.600211 0.061671 -3.589491 2.822470 2.071274 -0.797933 0.036821 0.063820 2.451838 -0.000913 0.100575 2.451955 0.056098 0.008229 -0.010245 -0.021109 0.078190 -0.312544 1.211359 -0.909217 3.730105 1.855995 -1.013987 -9.332290 0.064735 0.006416 -0.001260 1.703648 0.288442 -4.549076 -1.356068 -1.257274 -7.200685 -3.928291 -7.608332 30.202000 -0.000030 0.000325 33.480068 -0.441787 -0.458728 -72.796136 -0.000059 -0.000071 -21.994000 0.000020 -0.000008 -0.026807 0.000002 -0.000016 0.012747 -0.000096 -0.000110 -34.639899 0.000036 0.000015 0.015166 0.000026 -0.000010 0.012721 -0.000049 -0.000056 -24.223455 0.000013 -0.000013 -0.000051 1.447447 -0.450386 3.203770 8.620143 1.560732 11.025921 -8.267949 -15.534604 1.380371 0.024338 -0.030018 11.786757 0.012328 -0.002717 0.003928 0.023337 -0.032269 11.715801 -10.862567 -0.383869 14.446379 0.050397 0.015276 11.756011 -9.377068 4.420409 15.180150 0.050231 0.014938 11.743078 0.647347 0.599801 -5.921917 -0.004381 -0.052769 11.750672 0.000071 -0.000033 11.750675 
